<mxfile host="app.diagrams.net" agent="Mozilla/5.0 (Windows NT 10.0; Win64; x64) AppleWebKit/537.36 (KHTML, like Gecko) Chrome/139.0.0.0 Safari/537.36 Edg/139.0.0.0" version="28.0.9">
  <diagram name="第 1 页" id="eprzWSLBAv-vWgRvc6pA">
    <mxGraphModel dx="1045" dy="645" grid="1" gridSize="10" guides="1" tooltips="1" connect="1" arrows="1" fold="1" page="1" pageScale="1" pageWidth="827" pageHeight="1169" math="0" shadow="0">
      <root>
        <mxCell id="0" />
        <mxCell id="1" parent="0" />
        <mxCell id="aZ9rp7YG3aaxmJbCizWv-13" value="" style="rounded=0;whiteSpace=wrap;html=1;fillColor=#f5f5f5;fontColor=#333333;strokeColor=#666666;" vertex="1" parent="1">
          <mxGeometry x="50" y="160" width="690" height="320" as="geometry" />
        </mxCell>
        <mxCell id="aZ9rp7YG3aaxmJbCizWv-9" style="edgeStyle=orthogonalEdgeStyle;rounded=0;orthogonalLoop=1;jettySize=auto;html=1;exitX=1;exitY=0.5;exitDx=0;exitDy=0;entryX=0.004;entryY=0.518;entryDx=0;entryDy=0;entryPerimeter=0;" edge="1" parent="1" source="aZ9rp7YG3aaxmJbCizWv-2" target="aZ9rp7YG3aaxmJbCizWv-7">
          <mxGeometry relative="1" as="geometry" />
        </mxCell>
        <mxCell id="aZ9rp7YG3aaxmJbCizWv-2" value="设备1" style="rounded=0;whiteSpace=wrap;html=1;fillColor=#dae8fc;strokeColor=#6c8ebf;" vertex="1" parent="1">
          <mxGeometry x="100" y="190" width="120" height="60" as="geometry" />
        </mxCell>
        <mxCell id="aZ9rp7YG3aaxmJbCizWv-10" style="edgeStyle=orthogonalEdgeStyle;rounded=0;orthogonalLoop=1;jettySize=auto;html=1;exitX=1;exitY=0.5;exitDx=0;exitDy=0;" edge="1" parent="1" source="aZ9rp7YG3aaxmJbCizWv-4">
          <mxGeometry relative="1" as="geometry">
            <mxPoint x="300" y="320" as="targetPoint" />
          </mxGeometry>
        </mxCell>
        <mxCell id="aZ9rp7YG3aaxmJbCizWv-4" value="设备1" style="rounded=0;whiteSpace=wrap;html=1;fillColor=#dae8fc;strokeColor=#6c8ebf;" vertex="1" parent="1">
          <mxGeometry x="100" y="290" width="120" height="60" as="geometry" />
        </mxCell>
        <mxCell id="aZ9rp7YG3aaxmJbCizWv-5" value="设备1" style="rounded=0;whiteSpace=wrap;html=1;fillColor=#dae8fc;strokeColor=#6c8ebf;" vertex="1" parent="1">
          <mxGeometry x="100" y="380" width="120" height="60" as="geometry" />
        </mxCell>
        <mxCell id="aZ9rp7YG3aaxmJbCizWv-12" style="edgeStyle=orthogonalEdgeStyle;rounded=0;orthogonalLoop=1;jettySize=auto;html=1;exitX=1;exitY=0.5;exitDx=0;exitDy=0;entryX=0;entryY=0.5;entryDx=0;entryDy=0;" edge="1" parent="1" source="aZ9rp7YG3aaxmJbCizWv-7" target="aZ9rp7YG3aaxmJbCizWv-8">
          <mxGeometry relative="1" as="geometry" />
        </mxCell>
        <mxCell id="aZ9rp7YG3aaxmJbCizWv-7" value="前置机" style="rounded=0;whiteSpace=wrap;html=1;fillColor=#f8cecc;strokeColor=#b85450;" vertex="1" parent="1">
          <mxGeometry x="300" y="190" width="120" height="250" as="geometry" />
        </mxCell>
        <mxCell id="aZ9rp7YG3aaxmJbCizWv-8" value="arm虚拟机" style="rounded=0;whiteSpace=wrap;html=1;fillColor=#d5e8d4;strokeColor=#82b366;" vertex="1" parent="1">
          <mxGeometry x="580" y="190" width="120" height="250" as="geometry" />
        </mxCell>
        <mxCell id="aZ9rp7YG3aaxmJbCizWv-11" style="edgeStyle=orthogonalEdgeStyle;rounded=0;orthogonalLoop=1;jettySize=auto;html=1;exitX=1;exitY=0.5;exitDx=0;exitDy=0;entryX=0.004;entryY=0.519;entryDx=0;entryDy=0;entryPerimeter=0;" edge="1" parent="1" source="aZ9rp7YG3aaxmJbCizWv-5" target="aZ9rp7YG3aaxmJbCizWv-7">
          <mxGeometry relative="1" as="geometry" />
        </mxCell>
        <mxCell id="aZ9rp7YG3aaxmJbCizWv-14" value="实时上传&lt;div&gt;[噪声数据+音频文件]&lt;/div&gt;" style="text;html=1;align=center;verticalAlign=middle;whiteSpace=wrap;rounded=0;" vertex="1" parent="1">
          <mxGeometry x="420" y="290" width="170" height="10" as="geometry" />
        </mxCell>
      </root>
    </mxGraphModel>
  </diagram>
</mxfile>
